{
  "accessors": [
    {
      "bufferView": 2,
      "componentType": 5126,
      "count": 43444,
      "max": [
        0.21480101346969604,
        4.3122061477163243e-10,
        0.24482274055480957
      ],
      "min": [
        -0.21480101346969604,
        -0.32012301683425903,
        -0.24482274055480957
      ],
      "type": "VEC3"
    },
    {
      "bufferView": 2,
      "byteOffset": 521328,
      "componentType": 5126,
      "count": 43444,
      "max": [
        0.999981164932251,
        0.9999642372131348,
        0.9999143481254578
      ],
      "min": [
        -0.9999527931213379,
        -0.9999958276748657,
        -0.9999865293502808
      ],
      "type": "VEC3"
    },
    {
      "bufferView": 1,
      "componentType": 5126,
      "count": 43444,
      "max": [
        0.995186984539032,
        0.9999639987945557
      ],
      "min": [
        5.574700116994791e-05,
        4.787640136783011e-05
      ],
      "type": "VEC2"
    },
    {
      "bufferView": 0,
      "componentType": 5125,
      "count": 232746,
      "type": "SCALAR"
    },
    {
      "bufferView": 2,
      "byteOffset": 1042656,
      "componentType": 5126,
      "count": 1287,
      "max": [
        0.1082102358341217,
        -0.04655398800969124,
        -0.22709135711193085
      ],
      "min": [
        -0.0788278803229332,
        -0.27103474736213684,
        -0.24482274055480957
      ],
      "type": "VEC3"
    },
    {
      "bufferView": 2,
      "byteOffset": 1058100,
      "componentType": 5126,
      "count": 1287,
      "max": [
        0.9783265590667725,
        0.967725932598114,
        0.8233528137207031
      ],
      "min": [
        -0.9844515919685364,
        -0.9898337125778198,
        -0.9999865293502808
      ],
      "type": "VEC3"
    },
    {
      "bufferView": 1,
      "byteOffset": 347552,
      "componentType": 5126,
      "count": 1287,
      "max": [
        0.0,
        0.0
      ],
      "min": [
        0.0,
        0.0
      ],
      "type": "VEC2"
    },
    {
      "bufferView": 0,
      "byteOffset": 930984,
      "componentType": 5125,
      "count": 6804,
      "type": "SCALAR"
    }
  ],
  "asset": {
    "extras": {
      "author": "emm (https://sketchfab.com/edemaistre)",
      "license": "CC-BY-4.0 (http://creativecommons.org/licenses/by/4.0/)",
      "source": "https://sketchfab.com/3d-models/day-284-christmas-baby-yoda-plush-toy-51c0a41fc5704437981d7af459bf0dea",
      "title": "Day 284: \"Christmas Baby Yoda\" plush toy"
    },
    "generator": "Sketchfab-11.80.0",
    "version": "2.0"
  },
  "bufferViews": [
    {
      "buffer": 0,
      "byteLength": 958200,
      "name": "floatBufferViews",
      "target": 34963
    },
    {
      "buffer": 0,
      "byteLength": 357848,
      "byteOffset": 958200,
      "byteStride": 8,
      "name": "floatBufferViews",
      "target": 34962
    },
    {
      "buffer": 0,
      "byteLength": 1073544,
      "byteOffset": 1316048,
      "byteStride": 12,
      "name": "floatBufferViews",
      "target": 34962
    }
  ],
  "buffers": [
    {
      "byteLength": 2389592,
      "uri": "scene.bin"
    }
  ],
  "extensionsUsed": [
    "KHR_materials_unlit"
  ],
  "images": [
    {
      "uri": "textures/material_1_baseColor.png"
    }
  ],
  "materials": [
    {
      "doubleSided": true,
      "extensions": {
        "KHR_materials_unlit": {}
      },
      "name": "material_1",
      "pbrMetallicRoughness": {
        "baseColorTexture": {
          "index": 0
        },
        "metallicFactor": 0.0
      }
    }
  ],
  "meshes": [
    {
      "name": "Object_0",
      "primitives": [
        {
          "attributes": {
            "NORMAL": 1,
            "POSITION": 0,
            "TEXCOORD_0": 2
          },
          "indices": 3,
          "material": 0,
          "mode": 4
        }
      ]
    },
    {
      "name": "Object_1",
      "primitives": [
        {
          "attributes": {
            "NORMAL": 5,
            "POSITION": 4,
            "TEXCOORD_0": 6
          },
          "indices": 7,
          "material": 0,
          "mode": 4
        }
      ]
    }
  ],
  "nodes": [
    {
      "children": [
        1
      ],
      "matrix": [
        1.0,
        0.0,
        0.0,
        0.0,
        0.0,
        2.220446049250313e-16,
        -1.0,
        0.0,
        0.0,
        1.0,
        2.220446049250313e-16,
        0.0,
        0.0,
        0.0,
        0.0,
        1.0
      ],
      "name": "Sketchfab_model"
    },
    {
      "children": [
        2,
        3
      ],
      "name": "Baby-Yoda.obj.cleaner.materialmerger.gles"
    },
    {
      "mesh": 0,
      "name": "Object_2"
    },
    {
      "mesh": 1,
      "name": "Object_3"
    }
  ],
  "samplers": [
    {
      "magFilter": 9729,
      "minFilter": 9987,
      "wrapS": 10497,
      "wrapT": 10497
    }
  ],
  "scene": 0,
  "scenes": [
    {
      "name": "Sketchfab_Scene",
      "nodes": [
        0
      ]
    }
  ],
  "textures": [
    {
      "sampler": 0,
      "source": 0
    }
  ]
}
