{
  "accessors": [
    {
      "bufferView": 2,
      "componentType": 5126,
      "count": 1104,
      "max": [
        0.6651637554168701,
        0.5389999151229858,
        0.4877890646457672
      ],
      "min": [
        -0.6651637554168701,
        -0.5497797131538391,
        -0.41381800174713135
      ],
      "type": "VEC3"
    },
    {
      "bufferView": 2,
      "byteOffset": 13248,
      "componentType": 5126,
      "count": 1104,
      "max": [
        0.9977372288703918,
        0.9999918937683105,
        0.9918309450149536
      ],
      "min": [
        -0.9992040991783142,
        -0.9996392130851746,
        -0.9995783567428589
      ],
      "type": "VEC3"
    },
    {
      "bufferView": 1,
      "componentType": 5126,
      "count": 1104,
      "max": [
        0.9858627319335938,
        0.9937659502029419
      ],
      "min": [
        0.011806800961494446,
        0.031877607107162476
      ],
      "type": "VEC2"
    },
    {
      "bufferView": 0,
      "componentType": 5125,
      "count": 3018,
      "type": "SCALAR"
    },
    {
      "bufferView": 2,
      "byteOffset": 26496,
      "componentType": 5126,
      "count": 1104,
      "max": [
        0.6750723719596863,
        0.5496641993522644,
        0.498336523771286
      ],
      "min": [
        -0.6750723719596863,
        -0.5607763528823853,
        -0.42462530732154846
      ],
      "type": "VEC3"
    },
    {
      "bufferView": 2,
      "byteOffset": 39744,
      "componentType": 5126,
      "count": 1104,
      "max": [
        0.9961422681808472,
        0.9994226098060608,
        0.9993321895599365
      ],
      "min": [
        -0.9926816821098328,
        -0.9987552165985107,
        -0.9964884519577026
      ],
      "type": "VEC3"
    },
    {
      "bufferView": 1,
      "byteOffset": 8832,
      "componentType": 5126,
      "count": 1104,
      "max": [
        0.9858627319335938,
        0.9937659502029419
      ],
      "min": [
        0.011806800961494446,
        0.031877607107162476
      ],
      "type": "VEC2"
    },
    {
      "bufferView": 0,
      "byteOffset": 12072,
      "componentType": 5125,
      "count": 3018,
      "type": "SCALAR"
    },
    {
      "bufferView": 2,
      "byteOffset": 52992,
      "componentType": 5126,
      "count": 616,
      "max": [
        0.3488495647907257,
        0.27783524990081787,
        0.34994935989379883
      ],
      "min": [
        -0.3474526107311249,
        0.017454558983445168,
        0.13019812107086182
      ],
      "type": "VEC3"
    },
    {
      "bufferView": 2,
      "byteOffset": 60384,
      "componentType": 5126,
      "count": 616,
      "max": [
        0.8725666403770447,
        0.8822137713432312,
        0.847831666469574
      ],
      "min": [
        -0.8835047483444214,
        -0.8895995616912842,
        -0.8658180236816406
      ],
      "type": "VEC3"
    },
    {
      "bufferView": 1,
      "byteOffset": 17664,
      "componentType": 5126,
      "count": 616,
      "max": [
        0.9917830228805542,
        0.45979195833206177
      ],
      "min": [
        0.588862419128418,
        0.19337144494056702
      ],
      "type": "VEC2"
    },
    {
      "bufferView": 0,
      "byteOffset": 24144,
      "componentType": 5125,
      "count": 924,
      "type": "SCALAR"
    },
    {
      "bufferView": 2,
      "byteOffset": 67776,
      "componentType": 5126,
      "count": 504,
      "max": [
        0.3488495647907257,
        0.27783524990081787,
        0.34994935989379883
      ],
      "min": [
        -0.3474526107311249,
        0.018275929614901543,
        0.1314491331577301
      ],
      "type": "VEC3"
    },
    {
      "bufferView": 2,
      "byteOffset": 73824,
      "componentType": 5126,
      "count": 504,
      "max": [
        0.7314450144767761,
        -0.31563565135002136,
        -0.38780727982521057
      ],
      "min": [
        -0.729880690574646,
        -0.598136305809021,
        -0.8436558246612549
      ],
      "type": "VEC3"
    },
    {
      "bufferView": 1,
      "byteOffset": 22592,
      "componentType": 5126,
      "count": 504,
      "max": [
        0.9917830228805542,
        0.45979195833206177
      ],
      "min": [
        0.588862419128418,
        0.19337144494056702
      ],
      "type": "VEC2"
    },
    {
      "bufferView": 0,
      "byteOffset": 27840,
      "componentType": 5125,
      "count": 756,
      "type": "SCALAR"
    }
  ],
  "asset": {
    "extras": {
      "author": "dartuchiwa (https://sketchfab.com/dartuchiwa)",
      "license": "CC-BY-4.0 (http://creativecommons.org/licenses/by/4.0/)",
      "source": "https://sketchfab.com/3d-models/lp-hamtaro-abd2edcdc67c44ebb61e1e381880b40d",
      "title": "LP Hamtaro"
    },
    "generator": "Sketchfab-11.87.0",
    "version": "2.0"
  },
  "bufferViews": [
    {
      "buffer": 0,
      "byteLength": 30864,
      "name": "floatBufferViews",
      "target": 34963
    },
    {
      "buffer": 0,
      "byteLength": 26624,
      "byteOffset": 30864,
      "byteStride": 8,
      "name": "floatBufferViews",
      "target": 34962
    },
    {
      "buffer": 0,
      "byteLength": 79872,
      "byteOffset": 57488,
      "byteStride": 12,
      "name": "floatBufferViews",
      "target": 34962
    }
  ],
  "buffers": [
    {
      "byteLength": 137360,
      "uri": "scene.bin"
    }
  ],
  "extensionsUsed": [
    "KHR_materials_unlit"
  ],
  "images": [
    {
      "uri": "textures/Ham_R_baseColor.png"
    }
  ],
  "materials": [
    {
      "alphaMode": "BLEND",
      "doubleSided": true,
      "extensions": {
        "KHR_materials_unlit": {}
      },
      "name": "Ham_R",
      "pbrMetallicRoughness": {
        "baseColorFactor": [
          1.0,
          1.0,
          1.0,
          0.9677587107
        ],
        "baseColorTexture": {
          "index": 0
        },
        "metallicFactor": 0.0
      }
    },
    {
      "extensions": {
        "KHR_materials_unlit": {}
      },
      "name": "Outline",
      "pbrMetallicRoughness": {
        "baseColorFactor": [
          0.0,
          0.0,
          0.0,
          1.0
        ],
        "metallicFactor": 0.0
      }
    },
    {
      "extensions": {
        "KHR_materials_unlit": {}
      },
      "name": "Eye_Outline",
      "pbrMetallicRoughness": {
        "baseColorFactor": [
          0.0,
          0.0,
          0.0,
          1.0
        ],
        "metallicFactor": 0.0
      }
    }
  ],
  "meshes": [
    {
      "name": "Object_0",
      "primitives": [
        {
          "attributes": {
            "NORMAL": 1,
            "POSITION": 0,
            "TEXCOORD_0": 2
          },
          "indices": 3,
          "material": 0,
          "mode": 4
        }
      ]
    },
    {
      "name": "Object_1",
      "primitives": [
        {
          "attributes": {
            "NORMAL": 5,
            "POSITION": 4,
            "TEXCOORD_0": 6
          },
          "indices": 7,
          "material": 1,
          "mode": 4
        }
      ]
    },
    {
      "name": "Object_2",
      "primitives": [
        {
          "attributes": {
            "NORMAL": 9,
            "POSITION": 8,
            "TEXCOORD_0": 10
          },
          "indices": 11,
          "material": 0,
          "mode": 4
        }
      ]
    },
    {
      "name": "Object_3",
      "primitives": [
        {
          "attributes": {
            "NORMAL": 13,
            "POSITION": 12,
            "TEXCOORD_0": 14
          },
          "indices": 15,
          "material": 2,
          "mode": 4
        }
      ]
    }
  ],
  "nodes": [
    {
      "children": [
        1
      ],
      "matrix": [
        1.0,
        0.0,
        0.0,
        0.0,
        0.0,
        2.220446049250313e-16,
        -1.0,
        0.0,
        0.0,
        1.0,
        2.220446049250313e-16,
        0.0,
        0.0,
        0.0,
        0.0,
        1.0
      ],
      "name": "Sketchfab_model"
    },
    {
      "children": [
        2
      ],
      "name": "root"
    },
    {
      "children": [
        3,
        6
      ],
      "matrix": [
        1.0,
        0.0,
        0.0,
        0.0,
        0.0,
        2.220446049250313e-16,
        1.0,
        0.0,
        0.0,
        -1.0,
        2.220446049250313e-16,
        0.0,
        0.0,
        0.0,
        0.0,
        1.0
      ],
      "name": "GLTF_SceneRootNode"
    },
    {
      "children": [
        4,
        5
      ],
      "name": "R Body_0"
    },
    {
      "mesh": 0,
      "name": "Object_4"
    },
    {
      "mesh": 1,
      "name": "Object_5"
    },
    {
      "children": [
        7,
        8
      ],
      "name": "R Eyes.001_1"
    },
    {
      "mesh": 2,
      "name": "Object_7"
    },
    {
      "mesh": 3,
      "name": "Object_8"
    }
  ],
  "samplers": [
    {
      "magFilter": 9729,
      "minFilter": 9987,
      "wrapS": 10497,
      "wrapT": 10497
    }
  ],
  "scene": 0,
  "scenes": [
    {
      "name": "Sketchfab_Scene",
      "nodes": [
        0
      ]
    }
  ],
  "textures": [
    {
      "sampler": 0,
      "source": 0
    }
  ]
}
